<svg width="90" height="33" viewBox="0 0 90 33" fill="none" xmlns="http://www.w3.org/2000/svg">
<path d="M5.512 23.376V24H0.952V23.376L2.248 23.232C2.424 23.216 2.552 23.192 2.632 23.16C2.712 23.112 2.784 23.016 2.848 22.872C2.928 22.712 3.024 22.44 3.136 22.056L7.768 7.68H9.28L13.96 22.056C14.072 22.44 14.16 22.712 14.224 22.872C14.304 23.016 14.384 23.112 14.464 23.16C14.544 23.192 14.664 23.216 14.824 23.232L16.144 23.376V24H10.312V23.376L11.632 23.232C11.888 23.2 12.024 23.136 12.04 23.04C12.072 22.928 12 22.6 11.824 22.056L10.84 18.984H4.984L4 22.056C3.824 22.6 3.744 22.928 3.76 23.04C3.792 23.136 3.936 23.2 4.192 23.232L5.512 23.376ZM5.224 18.216H10.6L7.912 9.864L5.224 18.216ZM37.4543 23.376V24H31.6703V23.376L32.9903 23.232C33.2463 23.2 33.3983 23.136 33.4463 23.04C33.4943 22.928 33.5183 22.6 33.5183 22.056V9.048L28.5263 22.08H26.8943L21.8783 9.048V22.056C21.8783 22.6 21.9023 22.928 21.9503 23.04C21.9983 23.136 22.1503 23.2 22.4063 23.232L23.7263 23.376V24H19.1423V23.376L20.4623 23.232C20.7183 23.2 20.8703 23.136 20.9183 23.04C20.9663 22.928 20.9903 22.6 20.9903 22.056V9.624C20.9903 9.08 20.9663 8.76 20.9183 8.664C20.8703 8.552 20.7183 8.48 20.4623 8.448L19.1423 8.328V7.68H23.5343L28.3583 20.28L33.1823 7.68H37.4543V8.328L36.1343 8.448C35.8783 8.48 35.7263 8.552 35.6783 8.664C35.6303 8.76 35.6063 9.08 35.6063 9.624V22.056C35.6063 22.6 35.6303 22.928 35.6783 23.04C35.7263 23.136 35.8783 23.2 36.1343 23.232L37.4543 23.376ZM41.7108 8.328V7.68H48.2388C49.8068 7.68 50.9828 8.048 51.7668 8.784C52.5508 9.504 52.9428 10.432 52.9428 11.568V12.216C52.9428 13.048 52.6948 13.76 52.1988 14.352C51.7028 14.944 51.0068 15.36 50.1108 15.6C51.2308 15.792 52.1028 16.216 52.7268 16.872C53.3508 17.528 53.6628 18.352 53.6628 19.344V19.992C53.6628 21.16 53.2548 22.12 52.4388 22.872C51.6388 23.624 50.4388 24 48.8388 24H41.7108V23.376L43.0308 23.232C43.2868 23.2 43.4388 23.136 43.4868 23.04C43.5348 22.944 43.5588 22.616 43.5588 22.056V9.624C43.5588 9.064 43.5348 8.736 43.4868 8.64C43.4388 8.544 43.2868 8.48 43.0308 8.448L41.7108 8.328ZM48.2388 8.448H45.6468V15.312H48.2388C49.9028 15.312 50.7348 14.344 50.7348 12.408V11.424C50.7348 9.44 49.9028 8.448 48.2388 8.448ZM48.8388 16.08H45.6468V23.232H48.8388C50.5828 23.232 51.4548 22.2 51.4548 20.136V19.152C51.4548 18.16 51.2308 17.4 50.7828 16.872C50.3508 16.344 49.7028 16.08 48.8388 16.08ZM69.034 20.088H69.658V24H58.162V23.376L59.482 23.232C59.738 23.2 59.89 23.136 59.938 23.04C59.986 22.944 60.01 22.616 60.01 22.056V9.624C60.01 9.064 59.986 8.736 59.938 8.64C59.89 8.544 59.738 8.48 59.482 8.448L58.162 8.328V7.68H69.346V11.592H68.746L68.05 9.072C68.002 8.88 67.946 8.744 67.882 8.664C67.834 8.568 67.73 8.512 67.57 8.496C67.41 8.464 67.138 8.448 66.754 8.448H62.098V15.384H65.314C65.698 15.384 65.97 15.376 66.13 15.36C66.29 15.328 66.394 15.272 66.442 15.192C66.506 15.096 66.562 14.952 66.61 14.76L67.066 12.96H67.69V18.576H67.066L66.61 16.776C66.562 16.584 66.506 16.448 66.442 16.368C66.394 16.272 66.29 16.216 66.13 16.2C65.97 16.168 65.698 16.152 65.314 16.152H62.098V23.232H67.042C67.426 23.232 67.698 23.224 67.858 23.208C68.018 23.176 68.122 23.12 68.17 23.04C68.234 22.944 68.29 22.8 68.338 22.608L69.034 20.088ZM74.0039 8.328V7.68H80.6759C82.2439 7.68 83.4439 8.056 84.2759 8.808C85.1239 9.544 85.5479 10.528 85.5479 11.76V12.504C85.5479 13.48 85.2759 14.312 84.7319 15C84.2039 15.672 83.4439 16.136 82.4519 16.392L85.5239 22.056C85.7319 22.44 85.8839 22.712 85.9799 22.872C86.0759 23.016 86.1639 23.112 86.2439 23.16C86.3399 23.192 86.4679 23.216 86.6279 23.232L87.7079 23.376V24H84.0839L80.2919 16.608H77.9399V22.056C77.9399 22.616 77.9639 22.944 78.0119 23.04C78.0599 23.136 78.2119 23.2 78.4679 23.232L79.7879 23.376V24H74.0039V23.376L75.3239 23.232C75.5799 23.2 75.7319 23.136 75.7799 23.04C75.8279 22.944 75.8519 22.616 75.8519 22.056V9.624C75.8519 9.064 75.8279 8.736 75.7799 8.64C75.7319 8.544 75.5799 8.48 75.3239 8.448L74.0039 8.328ZM80.6759 8.448H77.9399V15.84H80.6759C81.5079 15.84 82.1559 15.576 82.6199 15.048C83.0999 14.504 83.3399 13.688 83.3399 12.6V11.664C83.3399 10.576 83.0999 9.768 82.6199 9.24C82.1559 8.712 81.5079 8.448 80.6759 8.448Z" fill="black"/>
<path d="M16.87 27.952C16.87 28.108 16.908 28.244 16.984 28.36C17.06 28.476 17.152 28.574 17.26 28.654C17.368 28.73 17.52 28.828 17.716 28.948C17.924 29.072 18.086 29.176 18.202 29.26C18.318 29.344 18.416 29.452 18.496 29.584C18.58 29.712 18.622 29.866 18.622 30.046C18.622 30.238 18.574 30.412 18.478 30.568C18.382 30.724 18.24 30.848 18.052 30.94C17.868 31.028 17.646 31.072 17.386 31.072C17.078 31.072 16.796 31.002 16.54 30.862C16.52 30.85 16.506 30.836 16.498 30.82C16.494 30.804 16.49 30.78 16.486 30.748L16.408 29.932C16.404 29.916 16.412 29.906 16.432 29.902C16.456 29.898 16.47 29.904 16.474 29.92C16.534 30.204 16.652 30.452 16.828 30.664C17.004 30.872 17.236 30.976 17.524 30.976C17.724 30.976 17.892 30.922 18.028 30.814C18.168 30.702 18.238 30.526 18.238 30.286C18.238 30.106 18.198 29.95 18.118 29.818C18.038 29.686 17.94 29.578 17.824 29.494C17.712 29.406 17.558 29.304 17.362 29.188C17.17 29.072 17.018 28.972 16.906 28.888C16.798 28.804 16.706 28.698 16.63 28.57C16.554 28.442 16.516 28.292 16.516 28.12C16.516 27.92 16.568 27.75 16.672 27.61C16.78 27.466 16.918 27.36 17.086 27.292C17.258 27.22 17.44 27.184 17.632 27.184C17.868 27.184 18.102 27.232 18.334 27.328C18.394 27.348 18.424 27.382 18.424 27.43L18.466 28.114C18.466 28.134 18.454 28.144 18.43 28.144C18.41 28.144 18.398 28.136 18.394 28.12C18.366 27.912 18.282 27.72 18.142 27.544C18.002 27.364 17.8 27.274 17.536 27.274C17.312 27.274 17.144 27.34 17.032 27.472C16.924 27.6 16.87 27.76 16.87 27.952ZM19.7453 31C19.7373 31 19.7333 30.988 19.7333 30.964C19.7333 30.94 19.7373 30.928 19.7453 30.928C19.8533 30.928 19.9333 30.918 19.9853 30.898C20.0413 30.874 20.0793 30.834 20.0993 30.778C20.1193 30.722 20.1293 30.634 20.1293 30.514V29.392C20.1293 29.248 20.1133 29.144 20.0813 29.08C20.0533 29.016 20.0033 28.984 19.9313 28.984C19.8593 28.984 19.7693 29.012 19.6613 29.068H19.6553C19.6393 29.068 19.6273 29.058 19.6193 29.038C19.6113 29.018 19.6133 29.004 19.6253 28.996L20.4053 28.636L20.4293 28.63C20.4373 28.63 20.4473 28.636 20.4593 28.648C20.4713 28.656 20.4773 28.666 20.4773 28.678C20.4773 28.706 20.4753 28.786 20.4713 28.918C20.4673 29.05 20.4653 29.206 20.4653 29.386V30.514C20.4653 30.634 20.4753 30.722 20.4953 30.778C20.5153 30.834 20.5513 30.874 20.6033 30.898C20.6553 30.918 20.7353 30.928 20.8433 30.928C20.8553 30.928 20.8613 30.94 20.8613 30.964C20.8613 30.988 20.8553 31 20.8433 31C20.7513 31 20.6773 30.998 20.6213 30.994L20.2973 30.988L19.9733 30.994C19.9173 30.998 19.8413 31 19.7453 31ZM20.2493 27.928C20.1693 27.928 20.1053 27.906 20.0573 27.862C20.0093 27.818 19.9853 27.756 19.9853 27.676C19.9853 27.596 20.0093 27.534 20.0573 27.49C20.1053 27.446 20.1693 27.424 20.2493 27.424C20.3293 27.424 20.3913 27.446 20.4353 27.49C20.4793 27.534 20.5013 27.596 20.5013 27.676C20.5013 27.756 20.4793 27.818 20.4353 27.862C20.3913 27.906 20.3293 27.928 20.2493 27.928ZM22.6279 32.68C22.3519 32.68 22.1339 32.618 21.9739 32.494C21.8179 32.374 21.7399 32.216 21.7399 32.02C21.7399 31.66 22.0459 31.306 22.6579 30.958L22.7239 31.036C22.5159 31.14 22.3559 31.248 22.2439 31.36C22.1359 31.476 22.0819 31.63 22.0819 31.822C22.0819 32.03 22.1499 32.194 22.2859 32.314C22.4259 32.438 22.6219 32.5 22.8739 32.5C23.1499 32.5 23.3759 32.426 23.5519 32.278C23.7279 32.134 23.8159 31.94 23.8159 31.696C23.8159 31.536 23.7759 31.418 23.6959 31.342C23.6199 31.27 23.5179 31.224 23.3899 31.204C23.2659 31.184 23.0899 31.174 22.8619 31.174C22.6419 31.17 22.4659 31.16 22.3339 31.144C22.2019 31.128 22.0939 31.088 22.0099 31.024C21.9299 30.964 21.8899 30.87 21.8899 30.742C21.8899 30.614 21.9279 30.5 22.0039 30.4C22.0839 30.3 22.2119 30.184 22.3879 30.052L22.4539 30.106C22.3579 30.182 22.2899 30.252 22.2499 30.316C22.2099 30.38 22.1899 30.45 22.1899 30.526C22.1899 30.618 22.2199 30.688 22.2799 30.736C22.3399 30.784 22.4359 30.818 22.5679 30.838C22.7039 30.854 22.8959 30.862 23.1439 30.862C23.3239 30.862 23.4819 30.874 23.6179 30.898C23.7539 30.918 23.8699 30.972 23.9659 31.06C24.0659 31.152 24.1159 31.288 24.1159 31.468C24.1159 31.684 24.0459 31.884 23.9059 32.068C23.7659 32.256 23.5799 32.404 23.3479 32.512C23.1199 32.624 22.8799 32.68 22.6279 32.68ZM22.8019 30.202C22.6139 30.202 22.4499 30.168 22.3099 30.1C22.1739 30.028 22.0699 29.932 21.9979 29.812C21.9259 29.692 21.8899 29.562 21.8899 29.422C21.8899 29.198 21.9779 29.012 22.1539 28.864C22.3339 28.716 22.5639 28.642 22.8439 28.642C23.0479 28.642 23.2159 28.68 23.3479 28.756C23.4839 28.828 23.5839 28.924 23.6479 29.044C23.7119 29.16 23.7439 29.282 23.7439 29.41C23.7439 29.55 23.7039 29.682 23.6239 29.806C23.5479 29.926 23.4379 30.022 23.2939 30.094C23.1539 30.166 22.9899 30.202 22.8019 30.202ZM22.9159 30.112C23.0519 30.112 23.1599 30.066 23.2399 29.974C23.3239 29.878 23.3659 29.734 23.3659 29.542C23.3659 29.294 23.3019 29.098 23.1739 28.954C23.0459 28.806 22.8879 28.732 22.6999 28.732C22.5599 28.732 22.4499 28.776 22.3699 28.864C22.2939 28.952 22.2559 29.09 22.2559 29.278C22.2559 29.458 22.2879 29.612 22.3519 29.74C22.4159 29.864 22.4979 29.958 22.5979 30.022C22.7019 30.082 22.8079 30.112 22.9159 30.112ZM23.3599 28.894C23.4959 28.806 23.6199 28.742 23.7319 28.702C23.8479 28.658 23.9739 28.636 24.1099 28.636C24.1179 28.636 24.1239 28.65 24.1279 28.678C24.1359 28.706 24.1399 28.736 24.1399 28.768C24.1399 28.816 24.1339 28.864 24.1219 28.912C24.1139 28.96 24.1019 28.98 24.0859 28.972C24.0179 28.944 23.9519 28.922 23.8879 28.906C23.8279 28.89 23.7599 28.882 23.6839 28.882C23.6039 28.882 23.5119 28.896 23.4079 28.924L23.3539 29.092L23.3599 28.894ZM26.5838 31C26.5718 31 26.5658 30.988 26.5658 30.964C26.5658 30.94 26.5718 30.928 26.5838 30.928C26.6918 30.928 26.7718 30.918 26.8238 30.898C26.8758 30.874 26.9098 30.834 26.9258 30.778C26.9458 30.722 26.9558 30.634 26.9558 30.514V29.542C26.9558 29.302 26.9098 29.128 26.8178 29.02C26.7298 28.908 26.5918 28.852 26.4038 28.852C26.2558 28.852 26.1058 28.898 25.9538 28.99C25.8058 29.082 25.6778 29.208 25.5698 29.368L25.5458 29.296C25.7218 29.06 25.8958 28.886 26.0678 28.774C26.2398 28.662 26.4178 28.606 26.6018 28.606C26.8218 28.606 26.9918 28.67 27.1118 28.798C27.2358 28.922 27.2978 29.102 27.2978 29.338V30.514C27.2978 30.634 27.3058 30.722 27.3218 30.778C27.3418 30.834 27.3778 30.874 27.4298 30.898C27.4818 30.918 27.5618 30.928 27.6698 30.928C27.6818 30.928 27.6878 30.94 27.6878 30.964C27.6878 30.988 27.6818 31 27.6698 31C27.5778 31 27.5058 30.998 27.4538 30.994L27.1298 30.988L26.7998 30.994C26.7478 30.998 26.6758 31 26.5838 31ZM24.9698 31C24.9578 31 24.9518 30.988 24.9518 30.964C24.9518 30.94 24.9578 30.928 24.9698 30.928C25.0778 30.928 25.1578 30.918 25.2098 30.898C25.2618 30.874 25.2958 30.834 25.3118 30.778C25.3318 30.722 25.3418 30.634 25.3418 30.514V29.326C25.3418 29.19 25.3258 29.092 25.2938 29.032C25.2618 28.972 25.2078 28.942 25.1318 28.942C25.0678 28.942 24.9598 28.972 24.8078 29.032H24.7958C24.7798 29.032 24.7678 29.024 24.7598 29.008C24.7558 28.988 24.7618 28.974 24.7778 28.966L25.4738 28.636C25.4818 28.632 25.4938 28.63 25.5098 28.63C25.5458 28.63 25.5838 28.676 25.6238 28.768C25.6638 28.86 25.6838 28.978 25.6838 29.122V30.514C25.6838 30.634 25.6918 30.722 25.7078 30.778C25.7278 30.834 25.7638 30.874 25.8158 30.898C25.8678 30.918 25.9478 30.928 26.0558 30.928C26.0678 30.928 26.0738 30.94 26.0738 30.964C26.0738 30.988 26.0678 31 26.0558 31C25.9638 31 25.8918 30.998 25.8398 30.994L25.5158 30.988L25.1858 30.994C25.1338 30.998 25.0618 31 24.9698 31ZM30.1634 31.036C30.1474 31.044 30.1314 31.048 30.1154 31.048C30.0554 31.048 30.0034 31.002 29.9594 30.91C29.9154 30.818 29.8934 30.696 29.8934 30.544V29.41C29.8934 28.962 29.7674 28.738 29.5154 28.738C29.3794 28.738 29.2754 28.784 29.2034 28.876C29.1354 28.964 29.0894 29.066 29.0654 29.182C29.0494 29.258 29.0254 29.318 28.9934 29.362C28.9654 29.406 28.9134 29.428 28.8374 29.428C28.7734 29.428 28.7234 29.41 28.6874 29.374C28.6554 29.338 28.6394 29.296 28.6394 29.248C28.6394 29.152 28.7014 29.056 28.8254 28.96C28.9494 28.864 29.0974 28.784 29.2694 28.72C29.4414 28.656 29.5954 28.624 29.7314 28.624C29.8954 28.624 30.0194 28.676 30.1034 28.78C30.1874 28.884 30.2294 29.034 30.2294 29.23V30.352C30.2294 30.492 30.2474 30.594 30.2834 30.658C30.3194 30.722 30.3774 30.754 30.4574 30.754C30.5374 30.754 30.6374 30.728 30.7574 30.676H30.7694C30.7854 30.676 30.7954 30.686 30.7994 30.706C30.8034 30.722 30.7974 30.734 30.7814 30.742L30.1634 31.036ZM29.0834 31.042C28.9354 31.042 28.8194 31.004 28.7354 30.928C28.6554 30.848 28.6154 30.748 28.6154 30.628C28.6154 30.508 28.6634 30.404 28.7594 30.316C28.8554 30.228 29.0134 30.144 29.2334 30.064L29.9534 29.794L29.9714 29.872L29.3354 30.118C29.2234 30.162 29.1414 30.214 29.0894 30.274C29.0414 30.33 29.0174 30.398 29.0174 30.478C29.0174 30.574 29.0474 30.656 29.1074 30.724C29.1714 30.788 29.2534 30.82 29.3534 30.82C29.4334 30.82 29.5294 30.788 29.6414 30.724L30.0194 30.496L30.0314 30.574L29.5874 30.862C29.4874 30.926 29.3994 30.972 29.3234 31C29.2474 31.028 29.1674 31.042 29.0834 31.042ZM32.401 31.072C32.233 31.072 32.095 31.034 31.987 30.958C31.879 30.882 31.825 30.756 31.825 30.58V29.17C31.825 29.066 31.817 28.992 31.801 28.948C31.789 28.904 31.763 28.876 31.723 28.864C31.683 28.848 31.615 28.84 31.519 28.84C31.503 28.84 31.495 28.828 31.495 28.804C31.495 28.776 31.503 28.762 31.519 28.762C31.679 28.758 31.809 28.716 31.909 28.636C32.009 28.552 32.067 28.442 32.083 28.306C32.083 28.294 32.099 28.288 32.131 28.288C32.159 28.288 32.173 28.294 32.173 28.306V30.376C32.173 30.7 32.331 30.862 32.647 30.862C32.831 30.862 32.991 30.806 33.127 30.694L33.139 30.688C33.155 30.688 33.167 30.698 33.175 30.718C33.183 30.734 33.181 30.746 33.169 30.754C33.021 30.87 32.887 30.952 32.767 31C32.651 31.048 32.529 31.072 32.401 31.072ZM32.983 28.978C32.727 28.914 32.423 28.882 32.071 28.882V28.75C32.323 28.75 32.635 28.73 33.007 28.69C33.015 28.69 33.023 28.706 33.031 28.738C33.043 28.766 33.049 28.798 33.049 28.834C33.049 28.866 33.041 28.9 33.025 28.936C33.013 28.968 32.999 28.982 32.983 28.978ZM34.8724 31.048C34.6724 31.048 34.5164 30.986 34.4044 30.862C34.2924 30.734 34.2364 30.55 34.2364 30.31V29.392C34.2364 29.236 34.2224 29.124 34.1944 29.056C34.1664 28.984 34.1204 28.948 34.0564 28.948C34.0004 28.948 33.9324 28.968 33.8524 29.008H33.8464C33.8304 29.008 33.8184 28.998 33.8104 28.978C33.8024 28.954 33.8064 28.94 33.8224 28.936L34.4884 28.636L34.5124 28.63C34.5244 28.63 34.5364 28.636 34.5484 28.648C34.5644 28.656 34.5724 28.666 34.5724 28.678V30.112C34.5724 30.576 34.7404 30.808 35.0764 30.808C35.2284 30.808 35.3824 30.762 35.5384 30.67C35.6944 30.578 35.8284 30.454 35.9404 30.298L35.9704 30.364C35.7904 30.6 35.6104 30.774 35.4304 30.886C35.2504 30.994 35.0644 31.048 34.8724 31.048ZM36.1624 30.358C36.1624 30.494 36.1784 30.592 36.2104 30.652C36.2424 30.712 36.2964 30.742 36.3724 30.742C36.4404 30.742 36.5464 30.714 36.6904 30.658H36.7024C36.7184 30.658 36.7284 30.668 36.7324 30.688C36.7404 30.704 36.7364 30.716 36.7204 30.724L36.0184 31.054L35.9944 31.06C35.9544 31.06 35.9164 31.014 35.8804 30.922C35.8444 30.83 35.8264 30.71 35.8264 30.562V29.392C35.8264 29.232 35.8124 29.118 35.7844 29.05C35.7604 28.982 35.7144 28.948 35.6464 28.948C35.5904 28.948 35.5224 28.968 35.4424 29.008H35.4364C35.4204 29.008 35.4084 28.998 35.4004 28.978C35.3964 28.954 35.4024 28.94 35.4184 28.936L36.0844 28.636L36.1024 28.63C36.1144 28.63 36.1264 28.636 36.1384 28.648C36.1544 28.656 36.1624 28.666 36.1624 28.678V30.358ZM38.0534 29.308C38.2654 29.044 38.4294 28.866 38.5454 28.774C38.6614 28.678 38.7694 28.63 38.8694 28.63C38.9574 28.63 39.0414 28.654 39.1214 28.702C39.2014 28.75 39.2414 28.808 39.2414 28.876C39.2414 28.928 39.2234 28.972 39.1874 29.008C39.1514 29.044 39.1034 29.062 39.0434 29.062C39.0074 29.062 38.9754 29.056 38.9474 29.044C38.9234 29.028 38.8934 29.006 38.8574 28.978C38.8214 28.946 38.7874 28.922 38.7554 28.906C38.7234 28.89 38.6854 28.882 38.6414 28.882C38.5814 28.882 38.5154 28.912 38.4434 28.972C38.3714 29.032 38.2494 29.166 38.0774 29.374L38.0534 29.308ZM37.4894 31C37.4774 31 37.4714 30.988 37.4714 30.964C37.4714 30.94 37.4774 30.928 37.4894 30.928C37.5974 30.928 37.6774 30.918 37.7294 30.898C37.7814 30.874 37.8154 30.834 37.8314 30.778C37.8514 30.722 37.8614 30.634 37.8614 30.514V29.326C37.8614 29.19 37.8454 29.092 37.8134 29.032C37.7814 28.972 37.7274 28.942 37.6514 28.942C37.5874 28.942 37.4794 28.972 37.3274 29.032H37.3154C37.2994 29.032 37.2874 29.024 37.2794 29.008C37.2754 28.988 37.2814 28.974 37.2974 28.966L37.9934 28.636C38.0014 28.632 38.0134 28.63 38.0294 28.63C38.0654 28.63 38.1034 28.676 38.1434 28.768C38.1834 28.86 38.2034 28.978 38.2034 29.122V30.514C38.2034 30.634 38.2174 30.722 38.2454 30.778C38.2774 30.834 38.3334 30.874 38.4134 30.898C38.4934 30.918 38.6174 30.928 38.7854 30.928C38.8014 30.928 38.8094 30.94 38.8094 30.964C38.8094 30.988 38.8014 31 38.7854 31C38.6574 31 38.5554 30.998 38.4794 30.994L38.0354 30.988L37.7054 30.994C37.6534 30.998 37.5814 31 37.4894 31ZM41.1286 31.072C40.8966 31.072 40.6986 31.018 40.5346 30.91C40.3706 30.802 40.2446 30.66 40.1566 30.484C40.0726 30.308 40.0306 30.12 40.0306 29.92C40.0306 29.684 40.0866 29.468 40.1986 29.272C40.3106 29.072 40.4626 28.916 40.6546 28.804C40.8506 28.688 41.0646 28.63 41.2966 28.63C41.5206 28.63 41.6926 28.69 41.8126 28.81C41.9326 28.93 41.9926 29.098 41.9926 29.314C41.9926 29.37 41.9866 29.41 41.9746 29.434C41.9666 29.458 41.9486 29.47 41.9206 29.47H41.5846L41.5906 29.362C41.5906 29.162 41.5466 29.01 41.4586 28.906C41.3706 28.802 41.2506 28.75 41.0986 28.75C40.8866 28.75 40.7206 28.834 40.6006 29.002C40.4846 29.17 40.4266 29.4 40.4266 29.692C40.4266 30.04 40.5086 30.322 40.6726 30.538C40.8366 30.754 41.0666 30.862 41.3626 30.862C41.4826 30.862 41.5846 30.846 41.6686 30.814C41.7566 30.782 41.8546 30.732 41.9626 30.664H41.9686C41.9806 30.664 41.9906 30.672 41.9986 30.688C42.0106 30.7 42.0126 30.712 42.0046 30.724C41.7326 30.956 41.4406 31.072 41.1286 31.072ZM40.3126 29.398L41.6746 29.374V29.47L40.3186 29.476L40.3126 29.398ZM45.4041 27.388L45.5481 27.4L45.4881 30.346C45.4841 30.558 45.5201 30.708 45.5961 30.796C45.6721 30.884 45.8061 30.928 45.9981 30.928C46.0061 30.928 46.0101 30.94 46.0101 30.964C46.0101 30.988 46.0061 31 45.9981 31C45.8861 31 45.8001 30.998 45.7401 30.994L45.4161 30.988L45.1041 30.994C45.0481 30.998 44.9681 31 44.8641 31C44.8561 31 44.8521 30.988 44.8521 30.964C44.8521 30.94 44.8561 30.928 44.8641 30.928C45.0321 30.928 45.1521 30.884 45.2241 30.796C45.3001 30.704 45.3401 30.554 45.3441 30.346L45.4041 27.388ZM49.5021 30.928C49.5141 30.928 49.5201 30.94 49.5201 30.964C49.5201 30.988 49.5141 31 49.5021 31C49.3781 31 49.2801 30.998 49.2081 30.994L48.7941 30.988L48.4101 30.994C48.3461 30.998 48.2561 31 48.1401 31C48.1321 31 48.1281 30.988 48.1281 30.964C48.1281 30.94 48.1321 30.928 48.1401 30.928C48.2761 30.928 48.3761 30.918 48.4401 30.898C48.5081 30.874 48.5521 30.834 48.5721 30.778C48.5961 30.722 48.6041 30.634 48.5961 30.514L48.4821 27.616L48.6801 27.34L47.1201 30.958C47.1121 30.974 47.0961 30.982 47.0721 30.982C47.0521 30.982 47.0341 30.974 47.0181 30.958L45.5121 27.748C45.4441 27.6 45.3601 27.492 45.2601 27.424C45.1641 27.356 45.0461 27.322 44.9061 27.322C44.8981 27.322 44.8941 27.31 44.8941 27.286C44.8941 27.262 44.8981 27.25 44.9061 27.25L45.1281 27.256C45.1681 27.26 45.2241 27.262 45.2961 27.262C45.3681 27.262 45.4281 27.26 45.4761 27.256C45.5281 27.252 45.5681 27.25 45.5961 27.25C45.6481 27.25 45.6901 27.27 45.7221 27.31C45.7581 27.346 45.8081 27.43 45.8721 27.562L47.2401 30.442L47.0541 30.754L48.5181 27.4C48.5621 27.3 48.6221 27.25 48.6981 27.25C48.7181 27.25 48.7461 27.252 48.7821 27.256C48.8221 27.26 48.8741 27.262 48.9381 27.262L49.2201 27.256C49.2641 27.252 49.3301 27.25 49.4181 27.25C49.4261 27.25 49.4301 27.262 49.4301 27.286C49.4301 27.31 49.4261 27.322 49.4181 27.322C49.2141 27.322 49.0681 27.352 48.9801 27.412C48.8961 27.468 48.8581 27.576 48.8661 27.736L48.9861 30.514C48.9901 30.638 49.0041 30.728 49.0281 30.784C49.0561 30.84 49.1041 30.878 49.1721 30.898C49.2401 30.918 49.3501 30.928 49.5021 30.928ZM52.0038 31.036C51.9878 31.044 51.9718 31.048 51.9558 31.048C51.8958 31.048 51.8438 31.002 51.7998 30.91C51.7558 30.818 51.7338 30.696 51.7338 30.544V29.41C51.7338 28.962 51.6078 28.738 51.3558 28.738C51.2198 28.738 51.1158 28.784 51.0438 28.876C50.9758 28.964 50.9298 29.066 50.9058 29.182C50.8898 29.258 50.8658 29.318 50.8338 29.362C50.8058 29.406 50.7538 29.428 50.6778 29.428C50.6138 29.428 50.5638 29.41 50.5278 29.374C50.4958 29.338 50.4798 29.296 50.4798 29.248C50.4798 29.152 50.5418 29.056 50.6658 28.96C50.7898 28.864 50.9378 28.784 51.1098 28.72C51.2818 28.656 51.4358 28.624 51.5718 28.624C51.7358 28.624 51.8598 28.676 51.9438 28.78C52.0278 28.884 52.0698 29.034 52.0698 29.23V30.352C52.0698 30.492 52.0878 30.594 52.1238 30.658C52.1598 30.722 52.2178 30.754 52.2978 30.754C52.3778 30.754 52.4778 30.728 52.5978 30.676H52.6098C52.6258 30.676 52.6358 30.686 52.6398 30.706C52.6438 30.722 52.6378 30.734 52.6218 30.742L52.0038 31.036ZM50.9238 31.042C50.7758 31.042 50.6598 31.004 50.5758 30.928C50.4958 30.848 50.4558 30.748 50.4558 30.628C50.4558 30.508 50.5038 30.404 50.5998 30.316C50.6958 30.228 50.8538 30.144 51.0738 30.064L51.7938 29.794L51.8118 29.872L51.1758 30.118C51.0638 30.162 50.9818 30.214 50.9298 30.274C50.8818 30.33 50.8578 30.398 50.8578 30.478C50.8578 30.574 50.8878 30.656 50.9478 30.724C51.0118 30.788 51.0938 30.82 51.1938 30.82C51.2738 30.82 51.3698 30.788 51.4818 30.724L51.8598 30.496L51.8718 30.574L51.4278 30.862C51.3278 30.926 51.2398 30.972 51.1638 31C51.0878 31.028 51.0078 31.042 50.9238 31.042ZM53.9475 29.308C54.1595 29.044 54.3235 28.866 54.4395 28.774C54.5555 28.678 54.6635 28.63 54.7635 28.63C54.8515 28.63 54.9355 28.654 55.0155 28.702C55.0955 28.75 55.1355 28.808 55.1355 28.876C55.1355 28.928 55.1175 28.972 55.0815 29.008C55.0455 29.044 54.9975 29.062 54.9375 29.062C54.9015 29.062 54.8695 29.056 54.8415 29.044C54.8175 29.028 54.7875 29.006 54.7515 28.978C54.7155 28.946 54.6815 28.922 54.6495 28.906C54.6175 28.89 54.5795 28.882 54.5355 28.882C54.4755 28.882 54.4095 28.912 54.3375 28.972C54.2655 29.032 54.1435 29.166 53.9715 29.374L53.9475 29.308ZM53.3835 31C53.3715 31 53.3655 30.988 53.3655 30.964C53.3655 30.94 53.3715 30.928 53.3835 30.928C53.4915 30.928 53.5715 30.918 53.6235 30.898C53.6755 30.874 53.7095 30.834 53.7255 30.778C53.7455 30.722 53.7555 30.634 53.7555 30.514V29.326C53.7555 29.19 53.7395 29.092 53.7075 29.032C53.6755 28.972 53.6215 28.942 53.5455 28.942C53.4815 28.942 53.3735 28.972 53.2215 29.032H53.2095C53.1935 29.032 53.1815 29.024 53.1735 29.008C53.1695 28.988 53.1755 28.974 53.1915 28.966L53.8875 28.636C53.8955 28.632 53.9075 28.63 53.9235 28.63C53.9595 28.63 53.9975 28.676 54.0375 28.768C54.0775 28.86 54.0975 28.978 54.0975 29.122V30.514C54.0975 30.634 54.1115 30.722 54.1395 30.778C54.1715 30.834 54.2275 30.874 54.3075 30.898C54.3875 30.918 54.5115 30.928 54.6795 30.928C54.6955 30.928 54.7035 30.94 54.7035 30.964C54.7035 30.988 54.6955 31 54.6795 31C54.5515 31 54.4495 30.998 54.3735 30.994L53.9295 30.988L53.5995 30.994C53.5475 30.998 53.4755 31 53.3835 31ZM55.9351 31C55.9231 31 55.9171 30.988 55.9171 30.964C55.9171 30.94 55.9231 30.928 55.9351 30.928C56.0431 30.928 56.1231 30.918 56.1751 30.898C56.2271 30.874 56.2631 30.834 56.2831 30.778C56.3031 30.718 56.3131 30.63 56.3131 30.514V27.412C56.3131 27.268 56.2991 27.164 56.2711 27.1C56.2431 27.036 56.1931 27.004 56.1211 27.004C56.0611 27.004 55.9691 27.032 55.8451 27.088H55.8331C55.8211 27.088 55.8111 27.078 55.8031 27.058C55.7951 27.038 55.7991 27.026 55.8151 27.022L56.5651 26.656L56.5951 26.65C56.6071 26.65 56.6191 26.656 56.6311 26.668C56.6431 26.676 56.6491 26.686 56.6491 26.698V30.514C56.6491 30.634 56.6591 30.722 56.6791 30.778C56.6991 30.834 56.7351 30.874 56.7871 30.898C56.8391 30.918 56.9191 30.928 57.0271 30.928C57.0391 30.928 57.0451 30.94 57.0451 30.964C57.0451 30.988 57.0391 31 57.0271 31C56.9351 31 56.8611 30.998 56.8051 30.994L56.4811 30.988L56.1571 30.994C56.1011 30.998 56.0271 31 55.9351 31ZM57.4411 31C57.4331 31 57.4291 30.988 57.4291 30.964C57.4291 30.94 57.4331 30.928 57.4411 30.928C57.6411 30.928 57.7411 30.89 57.7411 30.814C57.7411 30.778 57.7231 30.734 57.6871 30.682L56.9251 29.644L57.2071 29.44L57.9871 30.514C58.1871 30.79 58.4171 30.928 58.6771 30.928C58.6891 30.928 58.6951 30.94 58.6951 30.964C58.6951 30.988 58.6891 31 58.6771 31C58.5851 31 58.5111 30.998 58.4551 30.994L58.1311 30.988L57.6991 30.994C57.6351 30.998 57.5491 31 57.4411 31ZM56.5171 29.926L57.4531 29.17C57.5811 29.07 57.6451 28.982 57.6451 28.906C57.6451 28.806 57.5311 28.756 57.3031 28.756C57.2911 28.756 57.2851 28.744 57.2851 28.72C57.2851 28.696 57.2911 28.684 57.3031 28.684C57.4111 28.684 57.4931 28.686 57.5491 28.69L57.9871 28.696L58.3891 28.69C58.4411 28.686 58.5131 28.684 58.6051 28.684C58.6171 28.684 58.6231 28.696 58.6231 28.72C58.6231 28.744 58.6171 28.756 58.6051 28.756C58.4571 28.756 58.2931 28.792 58.1131 28.864C57.9331 28.936 57.7531 29.044 57.5731 29.188L56.5411 29.998L56.5171 29.926ZM60.4149 31.072C60.1829 31.072 59.9849 31.018 59.8209 30.91C59.6569 30.802 59.5309 30.66 59.4429 30.484C59.3589 30.308 59.3169 30.12 59.3169 29.92C59.3169 29.684 59.3729 29.468 59.4849 29.272C59.5969 29.072 59.7489 28.916 59.9409 28.804C60.1369 28.688 60.3509 28.63 60.5829 28.63C60.8069 28.63 60.9789 28.69 61.0989 28.81C61.2189 28.93 61.2789 29.098 61.2789 29.314C61.2789 29.37 61.2729 29.41 61.2609 29.434C61.2529 29.458 61.2349 29.47 61.2069 29.47H60.8709L60.8769 29.362C60.8769 29.162 60.8329 29.01 60.7449 28.906C60.6569 28.802 60.5369 28.75 60.3849 28.75C60.1729 28.75 60.0069 28.834 59.8869 29.002C59.7709 29.17 59.7129 29.4 59.7129 29.692C59.7129 30.04 59.7949 30.322 59.9589 30.538C60.1229 30.754 60.3529 30.862 60.6489 30.862C60.7689 30.862 60.8709 30.846 60.9549 30.814C61.0429 30.782 61.1409 30.732 61.2489 30.664H61.2549C61.2669 30.664 61.2769 30.672 61.2849 30.688C61.2969 30.7 61.2989 30.712 61.2909 30.724C61.0189 30.956 60.7269 31.072 60.4149 31.072ZM59.5989 29.398L60.9609 29.374V29.47L59.6049 29.476L59.5989 29.398ZM63.1581 31.072C62.9901 31.072 62.8521 31.034 62.7441 30.958C62.6361 30.882 62.5821 30.756 62.5821 30.58V29.17C62.5821 29.066 62.5741 28.992 62.5581 28.948C62.5461 28.904 62.5201 28.876 62.4801 28.864C62.4401 28.848 62.3721 28.84 62.2761 28.84C62.2601 28.84 62.2521 28.828 62.2521 28.804C62.2521 28.776 62.2601 28.762 62.2761 28.762C62.4361 28.758 62.5661 28.716 62.6661 28.636C62.7661 28.552 62.8241 28.442 62.8401 28.306C62.8401 28.294 62.8561 28.288 62.8881 28.288C62.9161 28.288 62.9301 28.294 62.9301 28.306V30.376C62.9301 30.7 63.0881 30.862 63.4041 30.862C63.5881 30.862 63.7481 30.806 63.8841 30.694L63.8961 30.688C63.9121 30.688 63.9241 30.698 63.9321 30.718C63.9401 30.734 63.9381 30.746 63.9261 30.754C63.7781 30.87 63.6441 30.952 63.5241 31C63.4081 31.048 63.2861 31.072 63.1581 31.072ZM63.7401 28.978C63.4841 28.914 63.1801 28.882 62.8281 28.882V28.75C63.0801 28.75 63.3921 28.73 63.7641 28.69C63.7721 28.69 63.7801 28.706 63.7881 28.738C63.8001 28.766 63.8061 28.798 63.8061 28.834C63.8061 28.866 63.7981 28.9 63.7821 28.936C63.7701 28.968 63.7561 28.982 63.7401 28.978ZM64.8554 31C64.8474 31 64.8434 30.988 64.8434 30.964C64.8434 30.94 64.8474 30.928 64.8554 30.928C64.9634 30.928 65.0434 30.918 65.0954 30.898C65.1514 30.874 65.1894 30.834 65.2094 30.778C65.2294 30.722 65.2394 30.634 65.2394 30.514V29.392C65.2394 29.248 65.2234 29.144 65.1914 29.08C65.1634 29.016 65.1134 28.984 65.0414 28.984C64.9694 28.984 64.8794 29.012 64.7714 29.068H64.7654C64.7494 29.068 64.7374 29.058 64.7294 29.038C64.7214 29.018 64.7234 29.004 64.7354 28.996L65.5154 28.636L65.5394 28.63C65.5474 28.63 65.5574 28.636 65.5694 28.648C65.5814 28.656 65.5874 28.666 65.5874 28.678C65.5874 28.706 65.5854 28.786 65.5814 28.918C65.5774 29.05 65.5754 29.206 65.5754 29.386V30.514C65.5754 30.634 65.5854 30.722 65.6054 30.778C65.6254 30.834 65.6614 30.874 65.7134 30.898C65.7654 30.918 65.8454 30.928 65.9534 30.928C65.9654 30.928 65.9714 30.94 65.9714 30.964C65.9714 30.988 65.9654 31 65.9534 31C65.8614 31 65.7874 30.998 65.7314 30.994L65.4074 30.988L65.0834 30.994C65.0274 30.998 64.9514 31 64.8554 31ZM65.3594 27.928C65.2794 27.928 65.2154 27.906 65.1674 27.862C65.1194 27.818 65.0954 27.756 65.0954 27.676C65.0954 27.596 65.1194 27.534 65.1674 27.49C65.2154 27.446 65.2794 27.424 65.3594 27.424C65.4394 27.424 65.5014 27.446 65.5454 27.49C65.5894 27.534 65.6114 27.596 65.6114 27.676C65.6114 27.756 65.5894 27.818 65.5454 27.862C65.5014 27.906 65.4394 27.928 65.3594 27.928ZM68.542 31C68.53 31 68.524 30.988 68.524 30.964C68.524 30.94 68.53 30.928 68.542 30.928C68.65 30.928 68.73 30.918 68.782 30.898C68.834 30.874 68.868 30.834 68.884 30.778C68.904 30.722 68.914 30.634 68.914 30.514V29.542C68.914 29.302 68.868 29.128 68.776 29.02C68.688 28.908 68.55 28.852 68.362 28.852C68.214 28.852 68.064 28.898 67.912 28.99C67.764 29.082 67.636 29.208 67.528 29.368L67.504 29.296C67.68 29.06 67.854 28.886 68.026 28.774C68.198 28.662 68.376 28.606 68.56 28.606C68.78 28.606 68.95 28.67 69.07 28.798C69.194 28.922 69.256 29.102 69.256 29.338V30.514C69.256 30.634 69.264 30.722 69.28 30.778C69.3 30.834 69.336 30.874 69.388 30.898C69.44 30.918 69.52 30.928 69.628 30.928C69.64 30.928 69.646 30.94 69.646 30.964C69.646 30.988 69.64 31 69.628 31C69.536 31 69.464 30.998 69.412 30.994L69.088 30.988L68.758 30.994C68.706 30.998 68.634 31 68.542 31ZM66.928 31C66.916 31 66.91 30.988 66.91 30.964C66.91 30.94 66.916 30.928 66.928 30.928C67.036 30.928 67.116 30.918 67.168 30.898C67.22 30.874 67.254 30.834 67.27 30.778C67.29 30.722 67.3 30.634 67.3 30.514V29.326C67.3 29.19 67.284 29.092 67.252 29.032C67.22 28.972 67.166 28.942 67.09 28.942C67.026 28.942 66.918 28.972 66.766 29.032H66.754C66.738 29.032 66.726 29.024 66.718 29.008C66.714 28.988 66.72 28.974 66.736 28.966L67.432 28.636C67.44 28.632 67.452 28.63 67.468 28.63C67.504 28.63 67.542 28.676 67.582 28.768C67.622 28.86 67.642 28.978 67.642 29.122V30.514C67.642 30.634 67.65 30.722 67.666 30.778C67.686 30.834 67.722 30.874 67.774 30.898C67.826 30.918 67.906 30.928 68.014 30.928C68.026 30.928 68.032 30.94 68.032 30.964C68.032 30.988 68.026 31 68.014 31C67.922 31 67.85 30.998 67.798 30.994L67.474 30.988L67.144 30.994C67.092 30.998 67.02 31 66.928 31ZM71.3177 32.68C71.0417 32.68 70.8237 32.618 70.6637 32.494C70.5077 32.374 70.4297 32.216 70.4297 32.02C70.4297 31.66 70.7357 31.306 71.3477 30.958L71.4137 31.036C71.2057 31.14 71.0457 31.248 70.9337 31.36C70.8257 31.476 70.7717 31.63 70.7717 31.822C70.7717 32.03 70.8397 32.194 70.9757 32.314C71.1157 32.438 71.3117 32.5 71.5637 32.5C71.8397 32.5 72.0657 32.426 72.2417 32.278C72.4177 32.134 72.5057 31.94 72.5057 31.696C72.5057 31.536 72.4657 31.418 72.3857 31.342C72.3097 31.27 72.2077 31.224 72.0797 31.204C71.9557 31.184 71.7797 31.174 71.5517 31.174C71.3317 31.17 71.1557 31.16 71.0237 31.144C70.8917 31.128 70.7837 31.088 70.6997 31.024C70.6197 30.964 70.5797 30.87 70.5797 30.742C70.5797 30.614 70.6177 30.5 70.6937 30.4C70.7737 30.3 70.9017 30.184 71.0777 30.052L71.1437 30.106C71.0477 30.182 70.9797 30.252 70.9397 30.316C70.8997 30.38 70.8797 30.45 70.8797 30.526C70.8797 30.618 70.9097 30.688 70.9697 30.736C71.0297 30.784 71.1257 30.818 71.2577 30.838C71.3937 30.854 71.5857 30.862 71.8337 30.862C72.0137 30.862 72.1717 30.874 72.3077 30.898C72.4437 30.918 72.5597 30.972 72.6557 31.06C72.7557 31.152 72.8057 31.288 72.8057 31.468C72.8057 31.684 72.7357 31.884 72.5957 32.068C72.4557 32.256 72.2697 32.404 72.0377 32.512C71.8097 32.624 71.5697 32.68 71.3177 32.68ZM71.4917 30.202C71.3037 30.202 71.1397 30.168 70.9997 30.1C70.8637 30.028 70.7597 29.932 70.6877 29.812C70.6157 29.692 70.5797 29.562 70.5797 29.422C70.5797 29.198 70.6677 29.012 70.8437 28.864C71.0237 28.716 71.2537 28.642 71.5337 28.642C71.7377 28.642 71.9057 28.68 72.0377 28.756C72.1737 28.828 72.2737 28.924 72.3377 29.044C72.4017 29.16 72.4337 29.282 72.4337 29.41C72.4337 29.55 72.3937 29.682 72.3137 29.806C72.2377 29.926 72.1277 30.022 71.9837 30.094C71.8437 30.166 71.6797 30.202 71.4917 30.202ZM71.6057 30.112C71.7417 30.112 71.8497 30.066 71.9297 29.974C72.0137 29.878 72.0557 29.734 72.0557 29.542C72.0557 29.294 71.9917 29.098 71.8637 28.954C71.7357 28.806 71.5777 28.732 71.3897 28.732C71.2497 28.732 71.1397 28.776 71.0597 28.864C70.9837 28.952 70.9457 29.09 70.9457 29.278C70.9457 29.458 70.9777 29.612 71.0417 29.74C71.1057 29.864 71.1877 29.958 71.2877 30.022C71.3917 30.082 71.4977 30.112 71.6057 30.112ZM72.0497 28.894C72.1857 28.806 72.3097 28.742 72.4217 28.702C72.5377 28.658 72.6637 28.636 72.7997 28.636C72.8077 28.636 72.8137 28.65 72.8177 28.678C72.8257 28.706 72.8297 28.736 72.8297 28.768C72.8297 28.816 72.8237 28.864 72.8117 28.912C72.8037 28.96 72.7917 28.98 72.7757 28.972C72.7077 28.944 72.6417 28.922 72.5777 28.906C72.5177 28.89 72.4497 28.882 72.3737 28.882C72.2937 28.882 72.2017 28.896 72.0977 28.924L72.0437 29.092L72.0497 28.894Z" fill="black"/>
</svg>
